<?xml version="1.0" encoding="UTF-8" standalone="no"?>
<svg
   version="1.2"
   width="926.438"
   height="556.838"
   viewBox="2720 2778 24512 14733"
   preserveAspectRatio="xMidYMid"
   fill-rule="evenodd"
   stroke-width="28.222"
   stroke-linejoin="round"
   xml:space="preserve"
   id="svg492"
   sodipodi:docname="groundwork-service-platform-concept-detailed_optimized2.svg"
   inkscape:version="1.2.1 (2ed6d7ae0b, 2022-08-22, custom)"
   xmlns:inkscape="http://www.inkscape.org/namespaces/inkscape"
   xmlns:sodipodi="http://sodipodi.sourceforge.net/DTD/sodipodi-0.dtd"
   xmlns="http://www.w3.org/2000/svg"
   xmlns:svg="http://www.w3.org/2000/svg"><sodipodi:namedview
     id="namedview494"
     pagecolor="#ffffff"
     bordercolor="#999999"
     borderopacity="1"
     inkscape:showpageshadow="0"
     inkscape:pageopacity="0"
     inkscape:pagecheckerboard="0"
     inkscape:deskcolor="#d1d1d1"
     showgrid="false"
     inkscape:zoom="2.1901088"
     inkscape:cx="463.21899"
     inkscape:cy="278.29668"
     inkscape:window-width="2504"
     inkscape:window-height="1563"
     inkscape:window-x="0"
     inkscape:window-y="0"
     inkscape:window-maximized="1"
     inkscape:current-layer="g367" /><defs
     id="defs85"><font
       horiz-adv-x="2048"
       id="font83"><font-face
         font-family="Open Sans embedded"
         units-per-em="2048"
         font-weight="bold"
         font-style="normal"
         ascent="2170"
         descent="609"
         id="font-face41" /><glyph
         unicode="y"
         horiz-adv-x="1165"
         d="M0 1118h334l211-629c7-20 12-40 17-61s9-42 12-64 6-45 8-69h6c4 36 10 70 17 101s15 62 26 93l207 629h327L692-143c-29-77-66-142-112-194-46-51-99-90-158-116-60-26-126-39-197-39-35 0-65 2-90 5-25 4-47 8-65 12v242c14-3 32-6 53-9s44-4 67-4c43 0 79 9 110 27s56 42 77 72c21 31 37 64 49 100l18 55L0 1118Z"
         id="glyph43" /><glyph
         unicode="x"
         horiz-adv-x="1192"
         d="M389 571 29 1118h346l217-356 219 356h346L793 571 1174 0H827L592 383 356 0H10l379 571Z"
         id="glyph45" /><glyph
         unicode="v"
         horiz-adv-x="1165"
         d="M426 0 0 1118h319l216-637c12-37 22-77 29-118s11-78 14-111h8c2 35 7 73 15 113 7 40 17 79 30 116l215 637h319L739 0H426Z"
         id="glyph47" /><glyph
         unicode="u"
         horiz-adv-x="1060"
         d="M1186 1118V0H952l-41 143h-16c-24-38-54-69-90-93S729 8 686-3s-88-17-135-17c-80 0-150 14-209 43-59 28-105 72-138 132s-50 138-50 234v729h305V465c0-80 14-140 43-181s74-61 137-61c62 0 111 14 146 43 35 28 60 70 75 125 14 55 21 122 21 201v526h305Z"
         id="glyph49" /><glyph
         unicode="t"
         horiz-adv-x="795"
         d="M631 223c33 0 66 3 98 10 31 7 63 15 94 25V31C790 16 750 4 702-6c-49-9-102-14-159-14-67 0-126 11-179 33-53 21-95 59-125 113-31 53-46 128-46 224v539H47v129l168 102 88 236h195v-238h313V889H498V350c0-43 12-74 37-95 24-21 56-32 96-32Z"
         id="glyph51" /><glyph
         unicode="s"
         horiz-adv-x="875"
         d="M940 332c0-76-18-140-53-192-36-53-89-92-160-119S568-20 463-20c-78 0-145 5-200 15C207 5 151 22 94 45v252c61-27 126-50 196-67 69-18 130-27 183-27 59 0 102 9 128 27 25 17 38 40 38 69 0 19-5 36-15 51-11 15-33 32-67 51s-87 43-160 74c-70 29-127 59-172 89s-79 66-100 107c-22 41-33 93-33 156 0 103 40 181 121 234 80 52 187 78 322 78 69 0 136-7 199-21s127-36 194-67l-92-220c-55 24-107 44-156 59s-99 23-150 23c-45 0-78-6-101-18s-34-30-34-55c0-18 6-34 18-48 11-14 34-29 68-46 33-17 83-39 148-66 63-26 118-53 165-81 47-29 83-64 108-105 25-42 38-96 38-162Z"
         id="glyph53" /><glyph
         unicode="r"
         horiz-adv-x="742"
         d="M784 1139c15 0 33-1 54-2 20-2 36-4 49-7l-23-286c-10 3-24 6-42 8-19 1-35 2-48 2-39 0-77-5-114-15s-71-26-100-48c-29-23-52-52-69-88-17-37-26-81-26-134V0H160v1118h231l45-188h15c22 38 50 73 83 105 33 31 70 57 113 76 42 19 88 28 137 28Z"
         id="glyph55" /><glyph
         unicode="p"
         horiz-adv-x="1059"
         d="M782 1139c126 0 228-49 306-147 77-98 116-242 116-431 0-127-18-233-55-319-37-87-87-152-152-196S858-20 774-20c-54 0-100 7-139 21-39 13-72 31-99 53-27 21-51 44-71 69h-16c5-27 9-54 12-82s4-55 4-82v-451H160v1610h248l43-145h14c20 30 44 58 73 83s63 46 104 61c40 15 87 22 140 22Zm-98-244c-53 0-96-11-127-33s-54-55-68-99c-15-44-23-100-24-167v-33c0-72 7-133 21-183 13-50 36-88 69-114 32-26 76-39 133-39 47 0 85 13 115 39s53 64 68 115c15 50 22 111 22 184 0 109-17 192-51 247s-87 83-158 83Z"
         id="glyph57" /><glyph
         unicode="o"
         horiz-adv-x="1113"
         d="M1176 561c0-93-12-176-37-248s-62-133-109-182C982 81 925 43 858 18S715-20 631-20c-79 0-151 13-216 38-66 25-123 63-171 113-49 49-86 110-112 182-27 72-40 155-40 248 0 124 22 229 66 315s107 151 188 196 178 67 291 67c105 0 198-22 279-67s144-110 191-196c46-86 69-191 69-315Zm-773 0c0-73 8-135 24-185s41-88 75-113 78-38 133-38c54 0 98 13 132 38 33 25 58 63 74 113 15 50 23 112 23 185 0 74-8 136-23 185-16 49-41 85-75 110s-78 37-133 37c-81 0-139-28-175-83-37-55-55-138-55-249Z"
         id="glyph59" /><glyph
         unicode="n"
         horiz-adv-x="1033"
         d="M795 1139c119 0 215-32 288-97s109-170 109-313V0H887v653c0 80-14 140-43 181s-75 61-137 61c-93 0-157-32-191-95s-51-155-51-274V0H160v1118h233l41-143h17c24 39 54 70 90 94 35 24 75 42 119 53 43 11 88 17 135 17Z"
         id="glyph61" /><glyph
         unicode="m"
         horiz-adv-x="1694"
         d="M1473 1139c127 0 223-32 288-97s97-170 97-313V0h-306v653c0 80-14 140-41 181s-70 61-127 61c-81 0-138-29-172-86-34-58-51-141-51-248V0H856v653c0 53-6 98-18 134s-30 63-55 81-56 27-95 27c-57 0-101-14-133-42-33-29-56-70-69-125-14-55-21-123-21-202V0H160v1118h233l41-143h17c23 39 51 70 86 94 34 24 72 42 113 53s83 17 126 17c82 0 152-13 209-40s100-68 131-124h27c33 57 81 99 142 125s123 39 188 39Z"
         id="glyph63" /><glyph
         unicode="l"
         horiz-adv-x="318"
         d="M465 0H160v1556h305V0Z"
         id="glyph65" /><glyph
         unicode="i"
         horiz-adv-x="372"
         d="M465 1118V0H160v1118h305Zm-152 438c45 0 84-10 117-31s49-61 49-118-16-96-49-117c-33-22-72-33-117-33-46 0-85 11-117 33-33 21-49 60-49 117s16 97 49 118c32 21 71 31 117 31Z"
         id="glyph67" /><glyph
         unicode="g"
         horiz-adv-x="1139"
         d="M487-492c-156 0-275 27-357 81C47-356 6-280 6-182 6-115 27-58 69-13s104 78 185 97c-31 13-59 35-82 66-23 30-35 62-35 96 0 43 12 78 37 107 25 28 60 56 107 83-59 25-105 66-139 122-35 56-52 122-52 198 0 81 18 151 54 208 35 57 87 100 156 130 68 30 151 45 249 45 21 0 45-1 72-4s53-7 76-10c23-4 38-6 46-6h390V963l-175-45c16-25 28-51 36-79s12-57 12-89c0-119-42-213-125-280-84-67-200-100-349-100-35 0-69 2-100 7-15-12-27-25-35-38s-12-27-12-42 6-27 19-36c12-10 31-17 56-22s56-8 93-8h190c123 0 216-26 281-79 64-53 96-130 96-232 0-131-54-232-163-304S691-492 487-492Zm13 199c73 0 135 7 188 20 52 14 92 34 120 58 28 26 42 55 42 90 0 28-8 50-24 66-17 17-41 28-74 35s-76 10-127 10H467c-37 0-71-6-100-18-30-12-54-29-71-51-17-21-26-46-26-75 0-42 20-75 61-99 40-24 96-36 169-36Zm49 848c57 0 99 18 126 53s40 83 40 144c0 67-14 118-41 152-28 33-70 50-125 50-56 0-98-17-126-50-28-34-42-85-42-152 0-61 14-109 42-144 27-35 69-53 126-53Z"
         id="glyph69" /><glyph
         unicode="f"
         horiz-adv-x="875"
         d="M778 889H514V0H209v889H41v147l168 82v82c0 95 16 170 49 223 32 53 78 90 137 112 59 21 128 32 209 32 59 0 113-5 162-14 49-10 88-21 119-33l-78-224c-23 7-49 14-76 20s-59 9-94 9c-43 0-74-13-93-38-20-26-30-59-30-99v-70h264V889Z"
         id="glyph71" /><glyph
         unicode="e"
         horiz-adv-x="1060"
         d="M621 1139c103 0 192-20 267-59 75-40 132-98 173-173s61-167 61-276V483H401c3-86 29-153 78-202 48-49 115-74 201-74 71 0 137 7 196 22s120 37 183 66V59c-55-27-113-47-173-60-61-13-134-19-220-19-112 0-211 21-297 62-87 41-154 104-203 189S92 422 92 551c0 131 22 240 67 327 44 87 106 152 185 196 79 43 172 65 277 65Zm2-217c-59 0-108-19-147-57s-62-98-68-179h428c-1 45-9 86-24 121-16 35-39 63-70 84s-71 31-119 31Z"
         id="glyph73" /><glyph
         unicode="d"
         horiz-adv-x="1060"
         d="M514-20c-125 0-226 49-304 147-79 97-118 241-118 430 0 191 40 336 119 435 79 98 183 147 311 147 53 0 100-7 141-22s76-34 106-59c29-25 54-52 75-83h10c-4 21-9 53-14 95-6 41-9 84-9 128v358h306V0H903l-59 145h-13c-19-31-43-58-72-83S695 17 655 2s-87-22-141-22Zm107 243c83 0 142 25 177 75 34 49 52 124 54 224v33c0 109-17 192-50 250-33 57-95 86-186 86-67 0-120-29-158-87s-57-142-57-251 19-192 58-247c38-55 92-83 162-83Z"
         id="glyph75" /><glyph
         unicode="c"
         horiz-adv-x="927"
         d="M614-20C503-20 409 0 331 41c-78 40-137 102-178 187S92 421 92 553c0 137 23 248 70 335 46 86 110 149 193 190 82 41 177 61 286 61 77 0 144-7 201-22 56-15 105-33 147-54l-90-236c-48 19-93 35-134 48-41 12-83 18-124 18-53 0-98-12-133-37s-62-63-79-113-26-113-26-188c0-74 9-135 28-184s46-85 81-108c35-24 78-36 129-36 63 0 120 9 169 26s97 40 144 71V63c-47-29-95-50-146-64-51-12-116-19-194-19Z"
         id="glyph77" /><glyph
         unicode="a"
         horiz-adv-x="1007"
         d="M618 1141c150 0 265-33 345-98s120-165 120-298V0H870l-59 152h-8c-32-40-65-73-98-98S633 10 590-2s-96-18-158-18c-66 0-125 13-177 38-53 25-94 64-124 117-30 52-45 118-45 199 0 119 42 206 125 263 83 56 208 87 375 93l194 6v49c0 59-15 102-46 129s-73 41-128 41c-54 0-107-8-159-23s-104-35-156-58l-101 206c59 31 126 56 200 74 73 18 149 27 228 27Zm162-623-118-4c-99-3-167-20-205-53-39-33-58-76-58-129 0-47 14-80 41-99 27-20 63-30 107-30 65 0 121 19 166 58s67 94 67 165v92Z"
         id="glyph79" /><glyph
         horiz-adv-x="529"
         id="glyph81" /></font>
</defs>
</svg>
